<?xml version="1.0" encoding="UTF-8"?>
<svg version="1.1" xmlns="http://www.w3.org/2000/svg" width="653" height="690">
<path d="M0 0 C1.6998305 1.44394204 3.38738511 2.90245714 5.0625 4.375 C6.00738281 5.19871094 6.95226562 6.02242187 7.92578125 6.87109375 C13.39503758 11.73347725 18.4670051 16.68058241 23.0625 22.375 C23.82046875 23.29539063 24.5784375 24.21578125 25.359375 25.1640625 C46.39001447 51.22268838 61.06385309 85.8337802 61.265625 119.6171875 C61.27132507 120.38443146 61.27702515 121.15167542 61.28289795 121.94216919 C61.29228725 123.56071625 61.29885756 125.17928191 61.30273438 126.79785156 C61.31233811 129.20934936 61.34337646 131.61995511 61.375 134.03125 C61.46659968 147.50019045 59.95551684 160.45534095 56.0625 173.375 C57.733125 173.3440625 57.733125 173.3440625 59.4375 173.3125 C72.03075487 174.96950722 85.01078103 194.98140143 92.5859375 204.4296875 C95.61893586 208.03675495 98.8249097 211.45206131 102.0625 214.875 C106.9161294 220.00708464 111.51054428 225.24329246 115.921875 230.765625 C119.00731159 234.52670464 122.31849971 238.0671957 125.61328125 241.64453125 C127.92310582 244.21959883 130.09493013 246.85754363 132.25 249.5625 C136.7370545 255.1334611 141.62135118 260.27735699 146.54467773 265.46264648 C150.88584337 270.05734275 154.95138122 274.78810649 158.890625 279.734375 C161.34291819 282.7159401 163.93313269 285.55083133 166.5625 288.375 C169.9753072 292.04099846 173.24850964 295.77213638 176.375 299.6875 C180.63359146 304.98589118 185.23984826 309.89096849 189.90722656 314.82519531 C194.06683359 319.24548004 197.93645132 323.81736332 201.71875 328.56640625 C204.55710229 331.96769841 207.58006028 335.1595957 210.625 338.375 C226.00313613 354.82639259 226.00313613 354.82639259 225.83203125 363.98828125 C224.17740647 369.1201378 221.20969514 371.78534427 216.57421875 374.16796875 C215.3061973 374.6508376 214.0311376 375.11559154 212.75 375.5625 C212.12416016 375.79646484 211.49832031 376.03042969 210.85351562 376.27148438 C209.61017794 376.73438856 208.36395781 377.18964315 207.11463928 377.63615417 C205.20899145 378.32225768 203.3128814 379.0346961 201.41772461 379.74926758 C196.79646455 381.48551188 192.14667055 383.13654618 187.4921875 384.78125 C185.62366881 385.44327724 183.75518043 386.10539 181.88671875 386.76757812 C180.43144775 387.28300171 180.43144775 387.28300171 178.94677734 387.80883789 C164.96043795 392.76408243 150.98093576 397.73157691 137.0625 402.875 C124.67850961 407.44713361 112.25197323 411.8939333 99.8125 416.3125 C98.85169525 416.65381958 97.8908905 416.99513916 96.90097046 417.34680176 C86.92991642 420.88750183 76.95479718 424.41645739 66.97265625 427.92578125 C66.19008453 428.20111191 65.40751282 428.47644257 64.60122681 428.76011658 C60.98289668 430.03305209 57.36389154 431.30396746 53.74316406 432.57006836 C47.58119826 434.7311829 41.48018888 436.98017198 35.43334961 439.44580078 C31.16172764 441.1199634 26.7991811 442.5186783 22.4375 443.9375 C20.65315765 444.52064377 18.86929531 445.1052585 17.0859375 445.69140625 C16.31169434 445.94349854 15.53745117 446.19559082 14.73974609 446.45532227 C11.85773506 447.4453401 9.01175376 448.51346483 6.16107178 449.5896759 C2.81815495 450.84065677 -0.54528172 452.03225734 -3.91015625 453.22265625 C-4.63690048 453.4800206 -5.36364471 453.73738495 -6.1124115 454.00254822 C-7.63574454 454.54159296 -9.15922959 455.08020832 -10.68286133 455.6184082 C-12.9982963 456.43689775 -15.31262858 457.25845491 -17.62695312 458.08007812 C-19.11712062 458.60696003 -20.60735282 459.13365895 -22.09765625 459.66015625 C-22.78013931 459.90290787 -23.46262238 460.14565948 -24.16578674 460.39576721 C-27.24557919 461.48023923 -30.32097888 462.48403794 -33.4621582 463.37719727 C-37.16899552 464.4414645 -40.77051351 465.71257676 -44.3828125 467.0546875 C-45.80467392 467.57685988 -47.22654938 468.09899405 -48.6484375 468.62109375 C-50.84675748 469.43169378 -53.04466145 470.24340246 -55.2421875 471.05615234 C-88.80880589 483.45429185 -112.77870296 485.07163719 -147.23828125 475.296875 C-153.29089219 473.59834125 -159.26935932 471.97603297 -165.47851562 470.96484375 C-168.3777539 470.26939501 -171.0555442 469.22263249 -173.8348999 468.15301514 C-177.08859813 466.94906462 -180.4037803 466.0079542 -183.7421875 465.0703125 C-184.46503937 464.86445526 -185.18789124 464.65859802 -185.93264771 464.44650269 C-188.22505817 463.79454348 -190.5187534 463.14724052 -192.8125 462.5 C-194.30997955 462.07451329 -195.80737595 461.64873379 -197.3046875 461.22265625 C-205.34911961 458.93697597 -213.40297422 456.68622046 -221.46202087 454.45269775 C-232.92889738 451.27183235 -244.3827688 448.04437975 -255.83824158 444.82274246 C-257.89728767 444.24373264 -259.95638978 443.66492241 -262.01550293 443.08615112 C-278.55423474 438.43705999 -295.08780032 433.77020485 -311.61328125 429.07421875 C-313.14928511 428.6378721 -314.68529076 428.20153173 -316.22129822 427.76519775 C-322.87882555 425.87372304 -329.53602114 423.98110822 -336.19189739 422.08383083 C-338.93560885 421.30210472 -341.67975069 420.52189731 -344.42398643 419.74201393 C-346.2821356 419.21338045 -348.13971491 418.68274517 -349.99726868 418.15202332 C-356.37561814 416.34039919 -362.76894233 414.6553778 -369.20690918 413.06968689 C-373.03040781 412.09695441 -376.792453 410.96633644 -380.5546875 409.78125 C-381.30033966 409.54845337 -382.04599182 409.31565674 -382.8142395 409.07580566 C-384.36564449 408.59022207 -385.9164986 408.10287497 -387.46679688 407.61376953 C-389.82749013 406.87027892 -392.1909439 406.13607085 -394.5546875 405.40234375 C-396.07569525 404.92503462 -397.59653484 404.44718921 -399.1171875 403.96875 C-399.81415741 403.75303345 -400.51112732 403.53731689 -401.22921753 403.31506348 C-411.90733163 399.92025255 -411.90733163 399.92025255 -414.9375 395.375 C-415.9938626 389.96114165 -413.65829348 386.44439495 -410.84375 382.0234375 C-407.56861282 377.47314445 -403.76882216 373.45633789 -399.9375 369.375 C-398.80596728 368.0890523 -397.68054923 366.79768783 -396.5625 365.5 C-394.08704886 362.65208514 -391.55179294 359.86737568 -388.98681641 357.09985352 C-384.90419609 352.69322682 -380.95704017 348.24547823 -377.1875 343.5625 C-374.17262481 339.81804648 -371.05662434 336.3757485 -367.60546875 333.03515625 C-365.23196144 330.67276607 -363.0728429 328.14429648 -360.88671875 325.609375 C-358.60729306 322.99648624 -356.27537647 320.43569979 -353.9375 317.875 C-351.07278185 314.73416444 -348.22564098 311.58399244 -345.4375 308.375 C-342.64935902 305.16600756 -339.80221815 302.01583556 -336.9375 298.875 C-333.48421847 295.08837002 -330.07650949 291.2702368 -326.71484375 287.40234375 C-324.64390513 285.04010827 -322.54237152 282.70704147 -320.4375 280.375 C-317.74766569 277.39437279 -315.07439636 274.40254767 -312.4375 271.375 C-307.56606797 265.78520011 -302.5785485 260.29965102 -297.609375 254.796875 C-293.63811402 250.39336793 -289.69928856 245.9669358 -285.80859375 241.4921875 C-283.59267041 238.98481704 -281.32709092 236.52598411 -279.0625 234.0625 C-274.9073978 229.51077441 -270.97443428 224.82741785 -267.125 220.015625 C-264.34405408 216.658626 -261.34329398 213.53869278 -258.2734375 210.4453125 C-256.70365706 208.4543303 -256.70365706 208.4543303 -257.0546875 206.015625 C-258.09202335 202.91279742 -259.33914734 199.98166644 -260.6875 197 C-268.53562982 179.10872394 -274.02331182 159.77498637 -274.140625 140.1328125 C-274.14632507 139.36556854 -274.15202515 138.59832458 -274.15789795 137.80783081 C-274.16728725 136.18928375 -274.17385756 134.57071809 -274.17773438 132.95214844 C-274.18733811 130.54065064 -274.21837646 128.13004489 -274.25 125.71875 C-274.35059226 111.08412057 -272.39725011 96.93271277 -268.25 82.875 C-267.86871948 81.56946167 -267.86871948 81.56946167 -267.47973633 80.23754883 C-260.47171133 57.15364725 -248.32326823 36.30448255 -231.9921875 18.6171875 C-230.22060243 16.68393687 -228.53967659 14.71210666 -226.875 12.6875 C-223.56968741 8.8253141 -219.86675858 5.58984793 -215.9375 2.375 C-215.02355469 1.62347656 -214.10960937 0.87195313 -213.16796875 0.09765625 C-151.22320812 -49.22439844 -61.92434928 -49.76850262 0 0 Z " fill="#7dd3fc" transform="translate(426.9375,206.625)"/>
<path d="M0 0 C1.6998305 1.44394204 3.38738511 2.90245714 5.0625 4.375 C6.00738281 5.19871094 6.95226562 6.02242187 7.92578125 6.87109375 C13.39503758 11.73347725 18.4670051 16.68058241 23.0625 22.375 C23.82046875 23.29539063 24.5784375 24.21578125 25.359375 25.1640625 C46.39001447 51.22268838 61.06385309 85.8337802 61.265625 119.6171875 C61.27132507 120.38443146 61.27702515 121.15167542 61.28289795 121.94216919 C61.29228725 123.56071625 61.29885756 125.17928191 61.30273438 126.79785156 C61.31233811 129.20934936 61.34337646 131.61995511 61.375 134.03125 C61.43112315 142.16058437 61.04923104 150.03855736 59.734375 158.0703125 C59.61765442 158.78782684 59.50093384 159.50534119 59.38067627 160.24459839 C58.47942959 165.21674531 57.04980565 169.72362885 55.0625 174.375 C53.00390625 175.7578125 53.00390625 175.7578125 50.625 176.5 C42.80198141 179.79997539 38.20549806 186.90177015 33.0625 193.375 C32.0625 194.375 32.0625 194.375 28.8125 194.75 C24.05203745 194.27395375 23.25157881 192.8209499 20.0625 189.375 C19.26070313 188.58480469 18.45890625 187.79460937 17.6328125 186.98046875 C13.19913545 182.59636956 8.89693691 178.17236637 4.83984375 173.4375 C2.7827376 171.05035264 0.67565228 168.71265244 -1.4375 166.375 C-4.12733431 163.39437279 -6.80060364 160.40254767 -9.4375 157.375 C-15.52822537 150.39226909 -21.76636332 143.54732169 -28.0625 136.75 C-31.85041944 132.6598027 -35.58886682 128.53915987 -39.23828125 124.32421875 C-42.75154669 120.29405909 -46.35433056 116.34293932 -49.9375 112.375 C-52.94309963 109.04665142 -55.94320899 105.71352519 -58.9375 102.375 C-59.93523437 101.27091797 -59.93523437 101.27091797 -60.953125 100.14453125 C-63.47930216 97.31584968 -65.74120067 94.70450244 -67.6875 91.4375 C-68.82934215 89.05138011 -68.82934215 89.05138011 -71.9375 88.375 C-73.48828125 86.6171875 -73.48828125 86.6171875 -75.25 84.25 C-89.61229252 64.9343895 -89.61229252 64.9343895 -109.9375 54.375 C-117.56012024 54.25003901 -122.24455614 57.49533384 -127.9375 62.375 C-131.11154723 65.56979263 -134.03689388 68.93222452 -136.9375 72.375 C-138.14342086 73.75211631 -139.35158647 75.12727174 -140.5625 76.5 C-142.29645055 78.48681834 -144.02588693 80.47729264 -145.75 82.47265625 C-148.26303317 85.37022682 -150.75287284 88.19487595 -153.5 90.875 C-155.4714917 92.89704277 -157.01390731 94.78905244 -158.65234375 97.0625 C-162.3100596 101.98641276 -166.47562899 106.3217495 -170.7265625 110.73046875 C-174.29070812 114.47517681 -177.46550805 118.32406586 -180.51708984 122.49560547 C-182.592784 125.24202926 -184.88589934 127.68330448 -187.25 130.1875 C-190.71445299 133.89523666 -194.02600271 137.65071702 -197.1875 141.625 C-201.08492984 146.47919962 -205.27571567 150.98778769 -209.5625 155.5 C-214.06874175 160.24436975 -218.36464448 164.97432187 -222.26953125 170.234375 C-225.15036895 173.93156249 -228.37135698 177.32212715 -231.54296875 180.76953125 C-235.8670288 185.4745036 -240.0305518 190.3154403 -244.1875 195.16796875 C-244.77233154 195.84827148 -245.35716309 196.52857422 -245.9597168 197.22949219 C-247.14108685 198.60402502 -248.31969878 199.98093382 -249.49536133 201.36035156 C-250.0395874 201.99295898 -250.58381348 202.62556641 -251.14453125 203.27734375 C-251.87893433 204.13573853 -251.87893433 204.13573853 -252.62817383 205.01147461 C-253.9375 206.375 -253.9375 206.375 -255.9375 207.375 C-266.33628205 186.51590465 -274.0001814 163.64779772 -274.140625 140.1328125 C-274.14632507 139.36556854 -274.15202515 138.59832458 -274.15789795 137.80783081 C-274.16728725 136.18928375 -274.17385756 134.57071809 -274.17773438 132.95214844 C-274.18733811 130.54065064 -274.21837646 128.13004489 -274.25 125.71875 C-274.35059226 111.08412057 -272.39725011 96.93271277 -268.25 82.875 C-267.99581299 82.00464111 -267.74162598 81.13428223 -267.47973633 80.23754883 C-260.47171133 57.15364725 -248.32326823 36.30448255 -231.9921875 18.6171875 C-230.22060243 16.68393687 -228.53967659 14.71210666 -226.875 12.6875 C-223.56968741 8.8253141 -219.86675858 5.58984793 -215.9375 2.375 C-214.56658203 1.24771484 -214.56658203 1.24771484 -213.16796875 0.09765625 C-151.22320812 -49.22439844 -61.92434928 -49.76850262 0 0 Z " fill="#FCAC1B" transform="translate(426.9375,206.625)"/>
<path d="M0 0 C0.92817192 3.62830843 1.26901295 5.41073355 -0.3125 8.875 C-0.869375 9.57625 -1.42625 10.2775 -2 11 C-2.66 11 -3.32 11 -4 11 C-4.04125 11.825 -4.0825 12.65 -4.125 13.5 C-5.13685513 17.54742052 -6.80556242 19.71022603 -9.4296875 22.875 C-11.32725818 25.44285683 -12.60554833 28.12907009 -14 31 C-15.17153716 33.1130959 -16.36025272 35.21672447 -17.5625 37.3125 C-18.07369385 38.20449097 -18.07369385 38.20449097 -18.59521484 39.11450195 C-21.82023367 44.72464574 -25.11454244 50.29366161 -28.41259766 55.86108398 C-31.32928264 60.80333919 -34.10370005 65.80295591 -36.74609375 70.8984375 C-38 73 -38 73 -39.5859375 74.55859375 C-41.89443797 76.91173374 -42.23253331 79.87109732 -43 83 C-43.66 83 -44.32 83 -45 83 C-45.66 85.31 -46.32 87.62 -47 90 C-47.66 90 -48.32 90 -49 90 C-49.26554687 90.86753906 -49.53109375 91.73507812 -49.8046875 92.62890625 C-50.98306954 95.95225168 -52.44225137 98.84433163 -54.125 101.9375 C-56.5480194 106.66003539 -57.71638504 109.7465097 -57 115 C-53.88836635 115.90380153 -51.05126936 116.14793382 -47.81640625 116.2109375 C-46.81335449 116.23736328 -45.81030273 116.26378906 -44.77685547 116.29101562 C-43.71611816 116.31873047 -42.65538086 116.34644531 -41.5625 116.375 C-33.84754074 116.62552266 -26.88467768 117.25162565 -19.42578125 119.31640625 C-14.80424406 120.2386058 -10.2644168 120.31373321 -5.5625 120.4375 C24.266886 121.266886 24.266886 121.266886 29 126 C29.34164271 128.95100084 29.38046492 130.46364258 27.63671875 132.921875 C26.99347656 133.52515625 26.35023438 134.1284375 25.6875 134.75 C24.59501953 135.77867187 24.59501953 135.77867187 23.48046875 136.828125 C19.95411776 139.91576461 16.31188544 142.84870728 12.65625 145.78125 C10.29101765 147.75691466 8.14150095 149.78828591 6 152 C2.21060681 155.90515877 -1.91547457 159.25430927 -6.15625 162.65625 C-8.96970944 164.97503525 -11.64233488 167.39331712 -14.3125 169.875 C-18.4500231 173.69242819 -22.73104428 177.19599997 -27.1875 180.625 C-31.81691863 184.18900119 -36.02838436 187.855998 -40.06640625 192.09375 C-43.08178484 195.06648688 -46.42890329 197.59466646 -49.76171875 200.19921875 C-52.12055608 202.03081663 -52.12055608 202.03081663 -54.5 204.5 C-56.83240425 206.83240425 -59.21669184 208.7839094 -61.8125 210.8125 C-65.92612637 214.0459448 -69.56327428 217.50919089 -73.19921875 221.26171875 C-75.56774824 223.54804331 -78.25648207 225.19044562 -81 227 C-82.08428788 228.04025588 -83.14494786 229.10541981 -84.1875 230.1875 C-86.98575614 233.07740208 -89.91992218 235.61370247 -93.0625 238.125 C-97.61421555 241.78643509 -101.92504652 245.63140634 -106.1875 249.625 C-106.78715576 250.18662842 -107.38681152 250.74825684 -108.00463867 251.3269043 C-109.15627577 252.40589697 -110.30788824 253.48491594 -111.45947266 254.56396484 C-128.96373216 270.88093067 -128.96373216 270.88093067 -135.1875 271.125 C-136.115625 271.08375 -137.04375 271.0425 -138 271 C-139.90185343 268.20315672 -139.99271185 266.89614391 -139.75 263.4375 C-139 260 -139 260 -137 257 C-136.34 257 -135.68 257 -135 257 C-134.81775879 256.12952026 -134.81775879 256.12952026 -134.63183594 255.24145508 C-133.98015299 252.9295922 -133.10934802 251.20057734 -131.890625 249.13671875 C-131.46523438 248.41419922 -131.03984375 247.69167969 -130.6015625 246.94726562 C-130.15554688 246.20154297 -129.70953125 245.45582031 -129.25 244.6875 C-128.81945312 243.95337891 -128.38890625 243.21925781 -127.9453125 242.46289062 C-125.17836332 237.79469941 -122.19890944 233.3826711 -119 229 C-117.19319649 226.18138652 -115.68087125 223.33121571 -114.25 220.3125 C-112.67174516 217.10218617 -110.84440472 214.27384653 -108.75 211.375 C-105.36586371 206.68534562 -102.51738834 201.80386599 -99.75292969 196.73388672 C-98.09947137 193.74195473 -96.49073298 191.33459748 -94 189 C-93.28552357 186.89667109 -93.28552357 186.89667109 -93 185 C-92.34 185 -91.68 185 -91 185 C-90.90460938 184.45085937 -90.80921875 183.90171875 -90.7109375 183.3359375 C-89.8106972 180.3780051 -88.33380673 178.19902532 -86.625 175.625 C-84.15459635 171.83368664 -81.94770837 168.09018757 -80 164 C-79.46375 163.154375 -78.9275 162.30875 -78.375 161.4375 C-76.94369709 158.90019029 -76.50175875 156.84487742 -76 154 C-76.64582031 153.96261719 -77.29164063 153.92523437 -77.95703125 153.88671875 C-84.26826805 153.4463999 -90.45226946 152.6581842 -96.6875 151.625 C-104.27176769 150.37109032 -111.86377696 149.38139316 -119.5 148.5 C-127.26918372 147.59467371 -135.01910119 146.62967637 -142.75 145.4375 C-143.51763672 145.32277344 -144.28527344 145.20804688 -145.07617188 145.08984375 C-154.3943126 143.6056874 -154.3943126 143.6056874 -158 140 C-158.125 137.375 -158.125 137.375 -158 135 C-157.34 135 -156.68 135 -156 135 C-155.64808594 133.89785156 -155.64808594 133.89785156 -155.2890625 132.7734375 C-153.77787741 129.52209989 -152.08785044 127.95150022 -149.375 125.625 C-148.03695313 124.46871094 -148.03695313 124.46871094 -146.671875 123.2890625 C-145.79015625 122.53367187 -144.9084375 121.77828125 -144 121 C-143.24203125 120.30648437 -142.4840625 119.61296875 -141.703125 118.8984375 C-141.01734375 118.27195312 -140.3315625 117.64546875 -139.625 117 C-139.01914062 116.443125 -138.41328125 115.88625 -137.7890625 115.3125 C-135.85442845 113.89320515 -134.34527882 113.41326499 -132 113 C-131.90203125 112.39027344 -131.8040625 111.78054688 -131.703125 111.15234375 C-130.84996712 108.54073269 -130.04173713 108.00230876 -127.75 106.5625 C-124.42515571 104.34593714 -121.79836746 101.86832665 -119 99 C-116.69984426 96.96109652 -114.34601044 94.98583456 -112 93 C-107.9040719 89.51270379 -103.93889127 85.98357388 -100.1875 82.125 C-97.25370486 79.14571966 -94.20415803 76.48446056 -90.9375 73.875 C-86.22608458 70.09932403 -81.82058921 66.08828164 -77.4375 61.9375 C-72.58948343 57.35102995 -67.67570908 53.01961153 -62.3984375 48.92578125 C-58.64267283 45.91015913 -55.13319477 42.63508173 -51.58984375 39.375 C-48.77555966 36.79417839 -45.90916763 34.2819964 -43.02734375 31.77734375 C-40.66510827 29.70640513 -38.33204147 27.60487152 -36 25.5 C-29.50399425 19.64472319 -22.91720004 13.90909788 -16.25 8.25 C-15.69465576 7.77771973 -15.13931152 7.30543945 -14.56713867 6.81884766 C-6.02327174 -0.41067762 -6.02327174 -0.41067762 0 0 Z " fill="#FDFDFD" transform="translate(453,410)"/>
<line x1="172" y1="294" x2="44" y2="271" stroke="#FDAD1B" stroke-width="45" stroke-linecap="round"/>
<line x1="224" y1="205" x2="140" y2="106" stroke="#FDAD1B" stroke-width="45" stroke-linecap="round"/>
<line x1="320" y1="170" x2="320" y2="40" stroke="#FDAD1B" stroke-width="45" stroke-linecap="round"/>
<line x1="416" y1="205" x2="500" y2="106" stroke="#FDAD1B" stroke-width="45" stroke-linecap="round"/>
<line x1="468" y1="294" x2="596" y2="271" stroke="#FDAD1B" stroke-width="45" stroke-linecap="round"/>
</svg>
