<svg id="wsymbol_0001_sunny" xmlns="http://www.w3.org/2000/svg" viewBox="0 0 512 512">
  <title>wsymbol_0001_sunny</title>
  <rect id="background" width="512" height="512" fill="#599cc1" opacity="0"/>
  <path id="sun" d="M255.31,343.54A95.67,95.67,0,1,1,351,247.87,95.78,95.78,0,0,1,255.31,343.54ZM271.94,129.8V59.32H240.06v70.29Zm56.74,24.08,35.41-61.33L336.47,76.61l-35.32,61.17Zm37.08,49,61.51-35.51-15.95-27.61-61.44,35.47Zm7.72,29v31.89h71.08V231.93Zm-23.6,88.55L411.32,356l15.95-27.62-61.51-35.51ZM301.15,358l35.32,61.17,27.62-15.95-35.41-61.33Zm-61.09,8.17v70.29h31.88V366ZM182.9,342.6l-35,60.59,27.62,15.95,35.05-60.71Zm-37.78-49.12L84.73,328.34l16,27.62L161.16,321ZM67.44,231.93v31.89h69.7V231.93Zm93.72-57.22-60.48-34.92-16,27.61,60.39,34.86Zm49.42-37.39L175.53,76.61,147.91,92.55l35,60.6Z" fill="#ffbc00"/>
</svg>
