<svg id="wsymbol_0050_freezing_rain" xmlns="http://www.w3.org/2000/svg" viewBox="0 0 512 512">
  <title>wsymbol_0050_freezing_rain</title>
  <rect id="background" width="512" height="512" fill="#599cc1" opacity="0"/>
  <path id="heavy_cloud_open" data-name="heavy cloud open" d="M357.9,177.16c-2.45,0-4.88.14-7.29.38a95.67,95.67,0,0,0-189.22,0c-2.4-.24-4.83-.38-7.29-.38a71.41,71.41,0,1,0,0,142.81h32.39l18.41-31.89H154.1a39.52,39.52,0,1,1,35.25-57.33l20.83-26.29a72,72,0,0,0-17.86-16.16,63.78,63.78,0,0,1,127.46,3.42,63.08,63.08,0,0,1-6,27l28.88,13.52A94.72,94.72,0,0,0,350,209.86a39.51,39.51,0,1,1,7.94,78.22H325L306.58,320H357.9a71.41,71.41,0,1,0,0-142.81Z"/>
  <path id="single_freezing_raindrop" data-name="single freezing raindrop" d="M283,326.26a32,32,0,0,1-55.43-32c8.84-15.31,59.27-38.66,59.27-38.66S291.81,311,283,326.26Z" fill="#fff"/>
  <path id="second_freezing_raindrop" data-name="second freezing raindrop" d="M227.67,422.06a32,32,0,0,1-55.43-32c8.84-15.31,59.27-38.66,59.27-38.66S236.51,406.75,227.67,422.06Z" fill="#fff"/>
</svg>
