<svg id="wsymbol_0005_hazy_sun" xmlns="http://www.w3.org/2000/svg" viewBox="0 0 512 512">
  <title>wsymbol_0005_hazy_sun</title>
  <rect id="background" width="512" height="512" fill="#599cc1" opacity="0"/>
  <path id="hazy_sun" data-name="hazy sun" d="M255.31,343.54A95.67,95.67,0,1,1,351,247.87,95.78,95.78,0,0,1,255.31,343.54ZM271.94,129.8V59.32H240.06v70.29Zm93.82,73.11,61.51-35.51-15.95-27.61-61.44,35.47ZM349.88,320.48,411.32,356l15.95-27.62-61.51-35.51ZM240.06,366.14v70.29h31.88V366Zm-94.94-72.66L84.73,328.34l16,27.62L161.16,321Zm16-118.77-60.48-34.92-16,27.61,60.39,34.86Z" fill="#ffbc00"/>
</svg>
