<svg id="wsymbol_0053_blowing_snow" xmlns="http://www.w3.org/2000/svg" viewBox="0 0 512 512">
  <title>wsymbol_0053_blowing_snow</title>
  <rect id="background" width="512" height="512" fill="#599cc1" opacity="0"/>
  <path id="heavy_cloud" data-name="heavy cloud" d="M357.9,177.16c-2.45,0-4.88.14-7.29.38a95.67,95.67,0,0,0-189.22,0c-2.4-.24-4.83-.38-7.29-.38a71.41,71.41,0,1,0,0,142.81H357.9a71.41,71.41,0,1,0,0-142.81Zm0,110.92H154.1a39.52,39.52,0,1,1,35.25-57.33l20.83-26.29a72,72,0,0,0-17.86-16.16,63.78,63.78,0,0,1,127.46,3.42,63.08,63.08,0,0,1-6,27l28.88,13.52A94.72,94.72,0,0,0,350,209.86a39.51,39.51,0,1,1,7.94,78.22Z"/>
  <polygon id="second_snowflake" data-name="second snowflake" points="224.96 418.91 229.61 401.53 205.07 394.95 223.03 376.98 210.31 364.25 192.34 382.22 185.76 357.68 168.37 362.33 174.95 386.88 150.41 380.3 145.75 397.69 170.29 404.27 152.32 422.24 165.05 434.96 183.02 417 189.6 441.54 206.99 436.88 200.41 412.34 224.96 418.91" fill="#fff"/>
  <rect id="motion_line_1" data-name="motion line 1" x="256" y="376" width="128" height="16" fill="#fff"/>
  <rect id="motion_line_2" data-name="motion line 2" x="256" y="412" width="96" height="16" fill="#fff"/>
</svg>
