<svg id="wsymbol_0080_tropical_storm_hurricane" xmlns="http://www.w3.org/2000/svg" viewBox="0 0 512 512">
  <title>wsymbol_0080_tropical_storm_hurricane</title>
  <rect id="background" width="512" height="512" fill="#599cc1" opacity="0"/>
  <path id="hurricane" d="M391.59,205.44a140,140,0,0,0-46.54-31.29c-12.84-5.62-27.29-6.42-40.93-7.23a72.42,72.42,0,0,0-22.47,3.21c-4.82,1.61-8.83,3.21-13.64,4.82-6.42,2.4-11.24,7.22-17.66,10.43-5.62,4-8.83,9.63-12.84,14.44,7.22-45.74,59.39-63.39,101.12-57,8.82,1.6,16.85,4,25.68,6.42a52.44,52.44,0,0,1,6.95,2.64l-22-38.15C302,102.48,251,113.55,216.65,150.87A117.5,117.5,0,0,0,199,177.35c-4.81,11.24-8,23.28-8,35.31,0,4.82.8,8.83.8,13.65a66.48,66.48,0,0,0,3.21,12c.8,1.6,1.6,4,2.41,5.61-25.68-17.65-26.49-53.77-17.66-81.05,6.42-18.46,16.86-33.71,30.5-47.35,4.83-4.29,9.31-7.87,14.15-11.45H179.83c-27.51,28.61-44.17,67.39-40.22,108.55,1.6,14.45,4.81,28.09,11.23,40.93,3.21,7.23,8.83,12,12.84,19.26a64,64,0,0,0,10.43,10.44,82.38,82.38,0,0,0,17.66,11.23l12,4.81a32.07,32.07,0,0,0,12,2.41c-20.86,9.63-44.94,1.61-63.39-11.23-3.21-3.21-7.23-5.62-10.44-8.83-19.95-20.35-30.77-46.26-33.94-73.29L85.65,247.23c7.67,25.54,22.85,48.94,42.72,67.35,4.82,4,9.63,8,15.25,12a80,80,0,0,0,16,8.83c8,3.21,16.05,7.22,24.88,8.82,16,2.41,31.29,3.21,46.54-.8,7.22-2.41,13.64-4,20.06-8,5.62-4,11.24-7.23,16-12a85.33,85.33,0,0,0,8-9.63c-3.21,28.09-28.89,46.54-54.57,54.57a114.3,114.3,0,0,1-71.42-4c-2.81-1.28-5.53-2.47-8.22-3.66l22.62,39.18c47.22,10.81,98.13.16,132.45-37.13,7.23-8,12.84-17.65,17.66-27.28,1.6-4.82,3.21-8.83,4.81-13.65,2.41-7.22,2.41-13.64,3.21-20.86.81-8.83-1.6-17.66-4-26.48-.8-1.61-1.6-4-2.41-5.62,24.88,18.46,27.29,53.77,17.66,81.05a107.59,107.59,0,0,1-5.62,14.45c-6.42,12-15.25,22.47-24.88,32.9a136.78,136.78,0,0,1-12,10.65h43.37c30.48-33.16,47.55-78.47,36-124.61-2.41-8-4-16-8-23.27a121.22,121.22,0,0,0-8-13.64,97,97,0,0,0-15.24-16.05c-3.21-3.21-7.23-5.62-11.24-8-5.62-3.21-12-5.61-18.46-8a32.07,32.07,0,0,0-12-2.41c30.49-12,64.2,4.82,83.46,31.3,3.21,4.81,6.42,8,8.82,12.84a209.36,209.36,0,0,1,12,31.3,138.31,138.31,0,0,1,3,15.73L426,265.2A150.8,150.8,0,0,0,391.59,205.44Z" fill="#fff"/>
</svg>
