<svg id="wsymbol_0083_heavy_freezing_drizzle" xmlns="http://www.w3.org/2000/svg" viewBox="0 0 512 512">
  <title>wsymbol_0083_heavy_freezing_drizzle</title>
  <rect id="background" width="512" height="512" fill="#599cc1" opacity="0"/>
  <path id="heavy_cloud" data-name="heavy cloud" d="M357.9,177.16c-2.45,0-4.88.14-7.29.38a95.67,95.67,0,0,0-189.22,0c-2.4-.24-4.83-.38-7.29-.38a71.41,71.41,0,1,0,0,142.81H357.9a71.41,71.41,0,1,0,0-142.81Zm0,110.92H154.1a39.52,39.52,0,1,1,35.25-57.33l20.83-26.29a72,72,0,0,0-17.86-16.16,63.78,63.78,0,0,1,127.46,3.42,63.08,63.08,0,0,1-6,27l28.88,13.52A94.72,94.72,0,0,0,350,209.86a39.51,39.51,0,1,1,7.94,78.22Z"/>
  <path id="heavy_drizzle" data-name="heavy drizzle" d="M256,392.06s12,17,12,23.66a12,12,0,0,1-24,0C244,409.1,256,392.06,256,392.06Zm-42-26.34a12,12,0,0,0,24,0c0-6.62-12-23.66-12-23.66S214,359.1,214,365.72Zm-30,50a12,12,0,0,0,24,0c0-6.62-12-23.66-12-23.66S184,409.1,184,415.72Zm90-50a12,12,0,0,0,24,0c0-6.62-12-23.66-12-23.66S274,359.1,274,365.72Zm-120,0a12,12,0,0,0,24,0c0-6.62-12-23.66-12-23.66S154,359.1,154,365.72Zm150,50a12,12,0,0,0,24,0c0-6.62-12-23.66-12-23.66S304,409.1,304,415.72Zm30-50a12,12,0,0,0,24,0c0-6.62-12-23.66-12-23.66S334,359.1,334,365.72Zm-210,50a12,12,0,0,0,24,0c0-6.62-12-23.66-12-23.66S124,409.1,124,415.72Zm-30-50a12,12,0,0,0,24,0c0-6.62-12-23.66-12-23.66S94,359.1,94,365.72Zm270,50a12,12,0,0,0,24,0c0-6.62-12-23.66-12-23.66S364,409.1,364,415.72Zm42-73.66s-12,17-12,23.66a12,12,0,0,0,24,0C418,359.1,406,342.06,406,342.06Z" fill="#fff"/>
</svg>
