<svg id="wsymbol_0086_extreme_rain_showers_night" xmlns="http://www.w3.org/2000/svg" viewBox="0 0 512 512">
  <title>wsymbol_0086_extreme_rain_showers_night</title>
  <rect id="background" width="512" height="512" fill="#599cc1" opacity="0"/>
  <path id="half_moon" data-name="half moon" d="M481.57,222.5a94,94,0,0,1-67.9-159,97,97,0,0,0-83.1,96q0,3.74.27,7.39a85.55,85.55,0,0,1,60.46,81.68c0,.3,0,.6,0,.91a97.08,97.08,0,0,0,112.15-29.54A94.24,94.24,0,0,1,481.57,222.5Z" fill="#fff"/>
  <path id="heavy_cloud_open" data-name="heavy cloud open" d="M305.9,177.16c-2.45,0-4.88.14-7.29.38a95.67,95.67,0,0,0-189.22,0c-2.4-.24-4.83-.38-7.29-.38a71.41,71.41,0,1,0,0,142.81h32.39l18.41-31.89H102.1a39.52,39.52,0,1,1,35.25-57.33l20.83-26.29a72,72,0,0,0-17.86-16.16,63.78,63.78,0,0,1,127.46,3.42,63.08,63.08,0,0,1-6,27l28.88,13.52A94.72,94.72,0,0,0,298,209.86a39.51,39.51,0,1,1,7.94,78.22H273L254.58,320H305.9a71.41,71.41,0,1,0,0-142.81Z"/>
  <path id="single_raindrop_offset" data-name="single raindrop offset" d="M231,326.26a32,32,0,0,1-55.43-32c8.84-15.31,59.27-38.66,59.27-38.66S239.81,311,231,326.26Z" fill="#0f3d87"/>
  <path id="second_raindrop_offset" data-name="second raindrop offset" d="M172.67,427.06a32,32,0,0,1-55.43-32c8.84-15.31,59.27-38.66,59.27-38.66S181.51,411.75,172.67,427.06Z" fill="#0f3d87"/>
  <path id="third_raindrop_offset" data-name="third raindrop offset" d="M270.67,427.06a32,32,0,0,1-55.43-32c8.84-15.31,59.27-38.66,59.27-38.66S279.51,411.75,270.67,427.06Z" fill="#0f3d87"/>
</svg>
