<svg id="wsymbol_0075_thundery_snow_showers_night" xmlns="http://www.w3.org/2000/svg" viewBox="0 0 512 512">
  <title>wsymbol_0075_thundery_snow_showers_night</title>
  <rect id="background" width="512" height="512" fill="#599cc1" opacity="0"/>
  <path id="half_moon" data-name="half moon" d="M481.57,222.5a94,94,0,0,1-67.9-159,97,97,0,0,0-83.1,96q0,3.74.27,7.39a85.55,85.55,0,0,1,60.46,81.68c0,.3,0,.6,0,.91a97.08,97.08,0,0,0,112.15-29.54A94.24,94.24,0,0,1,481.57,222.5Z" fill="#fff"/>
  <polygon id="lightning_offset" data-name="lightning offset" points="282.35 256 241.45 256 173.58 373 211.78 373 191.74 407.72 191.74 478.56 271.35 340.67 233.23 340.67 282.35 256" fill="#fff"/>
  <polygon id="second_snowflake_offset" data-name="second snowflake offset" points="143.96 418.91 148.61 401.53 124.07 394.95 142.03 376.98 129.31 364.25 111.34 382.22 104.76 357.68 87.37 362.33 93.95 386.88 69.41 380.3 64.75 397.69 89.29 404.27 71.33 422.24 84.05 434.96 102.02 417 108.6 441.54 125.98 436.88 119.41 412.34 143.96 418.91" fill="#fff"/>
  <path id="heavy_cloud_offset_open" data-name="heavy cloud offset open" d="M305.9,177.16c-2.45,0-4.88.14-7.29.38a95.67,95.67,0,0,0-189.22,0c-2.4-.24-4.83-.38-7.29-.38a71.41,71.41,0,1,0,0,142.81h62.39l18.41-31.89H102.1a39.52,39.52,0,1,1,35.25-57.33l20.83-26.29a72,72,0,0,0-17.86-16.16,63.78,63.78,0,0,1,127.46,3.42,63.08,63.08,0,0,1-6,27l28.88,13.52A94.72,94.72,0,0,0,298,209.86a39.51,39.51,0,1,1,7.94,78.22H303L284.58,320H305.9a71.41,71.41,0,1,0,0-142.81Z"/>
</svg>
