<svg id="wsymbol_0012_heavy_snow_showers" xmlns="http://www.w3.org/2000/svg" viewBox="0 0 512 512">
  <title>wsymbol_0012_heavy_snow_showers</title>
  <rect id="background" width="512" height="512" fill="#599cc1" opacity="0"/>
  <path id="half_sun" data-name="half sun" d="M340.27,134.42H308.38V59.56h31.89ZM429.56,95,402,79l-37.44,64.84,27.62,15.94Zm58.35,76.61L472,144l-64.84,37.43L423.08,209Zm13.19,92.26V231.93H426.23v31.89ZM472,354.57,487.91,327l-64.83-37.44-15.95,27.62Zm-70,63.74,27.61-15.94-37.43-64.84-27.62,15.94Zm-61.68-56.6H308.38v74.87h31.89Z" fill="#ffbc00"/>
  <polygon id="single_snowflake" data-name="single snowflake" points="239.96 330.3 244.61 312.92 220.07 306.34 238.03 288.37 225.31 275.64 207.34 293.61 200.76 269.07 183.37 273.73 189.95 298.27 165.41 291.69 160.75 309.08 185.29 315.66 167.32 333.63 180.05 346.36 198.02 328.39 204.6 352.93 221.99 348.27 215.41 323.73 239.96 330.3" fill="#fff"/>
  <polygon id="second_snowflake" data-name="second snowflake" points="188.96 418.91 193.61 401.53 169.07 394.95 187.03 376.98 174.31 364.25 156.34 382.22 149.76 357.68 132.37 362.33 138.95 386.88 114.41 380.3 109.75 397.69 134.29 404.27 116.33 422.24 129.05 434.96 147.02 417 153.6 441.54 170.99 436.88 164.41 412.34 188.96 418.91" fill="#fff"/>
  <path id="heavy_cloud_open" data-name="heavy cloud open" d="M305.9,177.16c-2.45,0-4.88.14-7.29.38a95.67,95.67,0,0,0-189.22,0c-2.4-.24-4.83-.38-7.29-.38a71.41,71.41,0,1,0,0,142.81h32.39l18.41-31.89H102.1a39.52,39.52,0,1,1,35.25-57.33l20.83-26.29a72,72,0,0,0-17.86-16.16,63.78,63.78,0,0,1,127.46,3.42,63.08,63.08,0,0,1-6,27l28.88,13.52A94.72,94.72,0,0,0,298,209.86a39.51,39.51,0,1,1,7.94,78.22H273L254.58,320H305.9a71.41,71.41,0,1,0,0-142.81Z"/>
</svg>
