<svg id="wsymbol_0076_thunderstorms_with_snow_night" xmlns="http://www.w3.org/2000/svg" viewBox="0 0 512 512">
  <title>wsymbol_0076_thunderstorms_with_snow_night</title>
  <rect id="background" width="512" height="512" fill="#599cc1" opacity="0"/>
  <polygon id="lightning_offset" data-name="lightning offset" points="334.35 256 293.45 256 225.58 373 263.78 373 243.74 407.72 243.74 478.56 323.35 340.67 285.23 340.67 334.35 256" fill="#fff"/>
  <polygon id="second_snowflake_offset" data-name="second snowflake offset" points="195.96 418.91 200.61 401.53 176.07 394.95 194.03 376.98 181.31 364.25 163.34 382.22 156.76 357.68 139.37 362.33 145.95 386.88 121.41 380.3 116.75 397.69 141.29 404.27 123.33 422.24 136.05 434.96 154.02 417 160.6 441.54 177.99 436.88 171.41 412.34 195.96 418.91" fill="#fff"/>
  <path id="heavy_cloud_offset_open" data-name="heavy cloud offset open" d="M357.9,177.16c-2.45,0-4.88.14-7.29.38a95.67,95.67,0,0,0-189.22,0c-2.4-.24-4.83-.38-7.29-.38a71.41,71.41,0,1,0,0,142.81h62.39l18.41-31.89H154.1a39.52,39.52,0,1,1,35.25-57.33l20.83-26.29a72,72,0,0,0-17.86-16.16,63.78,63.78,0,0,1,127.46,3.42,63.08,63.08,0,0,1-6,27l28.88,13.52A94.72,94.72,0,0,0,350,209.86a39.51,39.51,0,1,1,7.94,78.22H355L336.58,320H357.9a71.41,71.41,0,1,0,0-142.81Z"/>
</svg>
