<svg id="wsymbol_0041_partly_cloudy_night" xmlns="http://www.w3.org/2000/svg" viewBox="0 0 512 512">
  <title>wsymbol_0041_partly_cloudy_night</title>
  <rect id="background" width="512" height="512" fill="#599cc1" opacity="0"/>
  <path id="light_cloud_offset" data-name="light cloud offset" d="M305.9,177.16c-2.45,0-4.88.14-7.29.38a95.67,95.67,0,0,0-189.22,0c-2.4-.24-4.83-.38-7.29-.38a71.41,71.41,0,1,0,0,142.81H305.9a71.41,71.41,0,1,0,0-142.81Zm0,110.92H102.1a39.52,39.52,0,1,1,35.25-57.33l20.83-26.29a72,72,0,0,0-17.86-16.16,63.78,63.78,0,0,1,127.46,3.42,63.08,63.08,0,0,1-6,27l28.88,13.52A94.72,94.72,0,0,0,298,209.86a39.51,39.51,0,1,1,7.94,78.22Z" fill="#fff"/>
  <path id="half_moon" data-name="half moon" d="M481.57,222.5a94,94,0,0,1-67.9-159,97,97,0,0,0-83.1,96q0,3.74.27,7.39a85.55,85.55,0,0,1,60.46,81.68c0,.3,0,.6,0,.91a97.08,97.08,0,0,0,112.15-29.54A94.24,94.24,0,0,1,481.57,222.5Z" fill="#fff"/>
</svg>
