<svg id="wsymbol_0057_thundery_snow_showers" xmlns="http://www.w3.org/2000/svg" viewBox="0 0 512 512">
  <title>wsymbol_0057_thundery_snow_showers</title>
  <rect id="background" width="512" height="512" fill="#599cc1" opacity="0"/>
  <path id="half_sun" data-name="half sun" d="M340.27,134.42H308.38V59.56h31.89ZM429.56,95,402,79l-37.44,64.84,27.62,15.94Zm58.35,76.61L472,144l-64.84,37.43L423.08,209Zm13.19,92.26V231.93H426.23v31.89ZM472,354.57,487.91,327l-64.83-37.44-15.95,27.62Zm-70,63.74,27.61-15.94-37.43-64.84-27.62,15.94Zm-61.68-56.6H308.38v74.87h31.89Z" fill="#ffbc00"/>
  <polygon id="lightning_offset" data-name="lightning offset" points="282.35 256 241.45 256 173.58 373 211.78 373 191.74 407.72 191.74 478.56 271.35 340.67 233.23 340.67 282.35 256" fill="#fff"/>
  <polygon id="second_snowflake_offset" data-name="second snowflake offset" points="143.96 418.91 148.61 401.53 124.07 394.95 142.03 376.98 129.31 364.25 111.34 382.22 104.76 357.68 87.37 362.33 93.95 386.88 69.41 380.3 64.75 397.69 89.29 404.27 71.33 422.24 84.05 434.96 102.02 417 108.6 441.54 125.98 436.88 119.41 412.34 143.96 418.91" fill="#fff"/>
  <path id="heavy_cloud_offset_open" data-name="heavy cloud offset open" d="M305.9,177.16c-2.45,0-4.88.14-7.29.38a95.67,95.67,0,0,0-189.22,0c-2.4-.24-4.83-.38-7.29-.38a71.41,71.41,0,1,0,0,142.81h62.39l18.41-31.89H102.1a39.52,39.52,0,1,1,35.25-57.33l20.83-26.29a72,72,0,0,0-17.86-16.16,63.78,63.78,0,0,1,127.46,3.42,63.08,63.08,0,0,1-6,27l28.88,13.52A94.72,94.72,0,0,0,298,209.86a39.51,39.51,0,1,1,7.94,78.22H303L284.58,320H305.9a71.41,71.41,0,1,0,0-142.81Z"/>
</svg>
