<svg id="wsymbol_0043_mostly_cloudy" xmlns="http://www.w3.org/2000/svg" viewBox="0 0 512 512">
  <title>wsymbol_0043_mostly_cloudy</title>
  <rect id="background" width="512" height="512" fill="#599cc1" opacity="0"/>
  <path id="heavy_cloud_offset" data-name="heavy cloud offset" d="M305.9,177.16c-2.45,0-4.88.14-7.29.38a95.67,95.67,0,0,0-189.22,0c-2.4-.24-4.83-.38-7.29-.38a71.41,71.41,0,1,0,0,142.81H305.9a71.41,71.41,0,1,0,0-142.81Zm0,110.92H102.1a39.52,39.52,0,1,1,35.25-57.33l20.83-26.29a72,72,0,0,0-17.86-16.16,63.78,63.78,0,0,1,127.46,3.42,63.08,63.08,0,0,1-6,27l28.88,13.52A94.72,94.72,0,0,0,298,209.86a39.51,39.51,0,1,1,7.94,78.22Z"/>
  <path id="half_sun" data-name="half sun" d="M340.27,134.42H308.38V59.56h31.89ZM429.56,95,402,79l-37.44,64.84,27.62,15.94Zm58.35,76.61L472,144l-64.84,37.43L423.08,209Zm13.19,92.26V231.93H426.23v31.89ZM472,354.57,487.91,327l-64.83-37.44-15.95,27.62Zm-70,63.74,27.61-15.94-37.43-64.84-27.62,15.94Zm-61.68-56.6H308.38v74.87h31.89Z" fill="#ffbc00"/>
</svg>
