<svg id="wsymbol_0037_cloudy_with_sleet_night" xmlns="http://www.w3.org/2000/svg" viewBox="0 0 512 512">
  <title>wsymbol_0037_cloudy_with_sleet_night</title>
  <rect id="background" width="512" height="512" fill="#599cc1" opacity="0"/>
  <path id="heavy_cloud_open" data-name="heavy cloud open" d="M357.9,177.16c-2.45,0-4.88.14-7.29.38a95.67,95.67,0,0,0-189.22,0c-2.4-.24-4.83-.38-7.29-.38a71.41,71.41,0,1,0,0,142.81h32.39l18.41-31.89H154.1a39.52,39.52,0,1,1,35.25-57.33l20.83-26.29a72,72,0,0,0-17.86-16.16,63.78,63.78,0,0,1,127.46,3.42,63.08,63.08,0,0,1-6,27l28.88,13.52A94.72,94.72,0,0,0,350,209.86a39.51,39.51,0,1,1,7.94,78.22H325L306.58,320H357.9a71.41,71.41,0,1,0,0-142.81Z"/>
  <polygon id="single_snowflake" data-name="single snowflake" points="291.95 330.3 296.61 312.92 272.07 306.34 290.04 288.37 277.31 275.64 259.34 293.61 252.76 269.07 235.37 273.73 241.95 298.27 217.41 291.69 212.75 309.08 237.29 315.66 219.32 333.63 232.05 346.36 250.02 328.39 256.6 352.93 273.99 348.27 267.41 323.73 291.95 330.3" fill="#fff"/>
  <path id="second_raindrop" data-name="second raindrop" d="M224.67,427.06a32,32,0,0,1-55.43-32c8.84-15.31,59.27-38.66,59.27-38.66S233.51,411.75,224.67,427.06Z" fill="#0f3d87"/>
</svg>
