<svg id="wsymbol_0055_smoke" xmlns="http://www.w3.org/2000/svg" viewBox="0 0 512 512">
  <title>wsymbol_0055_smoke</title>
  <rect id="background" width="512" height="512" fill="#599cc1" opacity="0"/>
  <path id="smoke_cloud" data-name="smoke cloud" d="M357.9,177.16c-2.45,0-4.88.14-7.29.38a95.67,95.67,0,0,0-189.22,0c-2.4-.24-4.83-.38-7.29-.38a71.41,71.41,0,0,0,0,142.81H172v0a84.74,84.74,0,0,0,.65,10.45,62.58,62.58,0,0,0-25.3,84.72A46,46,0,0,0,122.5,456v9h92v-9a45.63,45.63,0,0,0-.87-8.88,62.82,62.82,0,0,0,48.79-43.39A84.09,84.09,0,0,0,340,320v0h17.9a71.41,71.41,0,0,0,0-142.81ZM142,447a28,28,0,0,1,53,0Zm61.21-21.15a45.86,45.86,0,0,0-32.73-15.8,40.37,40.37,0,1,1,32.73,15.8Zm61.12-50.47a62.73,62.73,0,0,0-61.81-52.51c-.81,0-1.61,0-2.42.06C200,322,200,321,200,320a56,56,0,1,1,64.31,55.38Zm93.59-87.3H333.68A84,84,0,0,0,178.34,288l-24.24.06a39.52,39.52,0,1,1,35.25-57.33l20.83-26.29a72,72,0,0,0-17.86-16.16,63.78,63.78,0,0,1,127.46,3.42,63.08,63.08,0,0,1-6,27l28.88,13.52A94.72,94.72,0,0,0,350,209.86a39.51,39.51,0,1,1,7.94,78.22Z" fill="#888"/>
</svg>
