<svg id="wsymbol_0067_freezing_drizzle_night" xmlns="http://www.w3.org/2000/svg" viewBox="0 0 512 512">
  <title>wsymbol_0067_freezing_drizzle_night</title>
  <rect id="background" width="512" height="512" fill="#599cc1" opacity="0"/>
  <path id="heavy_cloud" data-name="heavy cloud" d="M357.9,177.16c-2.45,0-4.88.14-7.29.38a95.67,95.67,0,0,0-189.22,0c-2.4-.24-4.83-.38-7.29-.38a71.41,71.41,0,1,0,0,142.81H357.9a71.41,71.41,0,1,0,0-142.81Zm0,110.92H154.1a39.52,39.52,0,1,1,35.25-57.33l20.83-26.29a72,72,0,0,0-17.86-16.16,63.78,63.78,0,0,1,127.46,3.42,63.08,63.08,0,0,1-6,27l28.88,13.52A94.72,94.72,0,0,0,350,209.86a39.51,39.51,0,1,1,7.94,78.22Z"/>
  <path id="freezing_drizzle" data-name="freezing drizzle" d="M328,415.72a12,12,0,0,1-24,0c0-6.62,12-23.66,12-23.66S328,409.1,328,415.72Zm-72-23.66s-12,17-12,23.66a12,12,0,0,0,24,0C268,409.1,256,392.06,256,392.06Zm-60,0s-12,17-12,23.66a12,12,0,0,0,24,0C208,409.1,196,392.06,196,392.06Zm150-50s-12,17-12,23.66a12,12,0,0,0,24,0C358,359.1,346,342.06,346,342.06Zm-60,0s-12,17-12,23.66a12,12,0,0,0,24,0C298,359.1,286,342.06,286,342.06Zm-60,0s-12,17-12,23.66a12,12,0,0,0,24,0C238,359.1,226,342.06,226,342.06Zm-60,0s-12,17-12,23.66a12,12,0,0,0,24,0C178,359.1,166,342.06,166,342.06Z" fill="#fff"/>
</svg>
